<?xml version="1.0" standalone="no"?>
<!DOCTYPE svg PUBLIC "-//W3C//DTD SVG 20010904//EN"
 "http://www.w3.org/TR/2001/REC-SVG-20010904/DTD/svg10.dtd">
<svg version="1.0" xmlns="http://www.w3.org/2000/svg"
 width="1024.000000pt" height="1024.000000pt" viewBox="0 0 1024.000000 1024.000000"
 preserveAspectRatio="xMidYMid meet">
<metadata>
Created by potrace 1.14, written by Peter Selinger 2001-2017
</metadata>
<g transform="translate(0.000000,1024.000000) scale(0.100000,-0.100000)"
fill="#000000" stroke="none">
<path d="M6103 10093 c-18 -7 -33 -18 -33 -24 0 -5 -5 -7 -10 -4 -6 3 -13 -1
-16 -9 -3 -9 -10 -13 -15 -11 -5 3 -11 -6 -15 -20 -3 -14 -10 -25 -15 -25 -5
0 -6 -7 -3 -15 4 -8 2 -15 -3 -15 -6 0 -9 -14 -8 -30 1 -17 -1 -33 -5 -35 -4
-2 -6 -29 -5 -60 1 -30 -1 -55 -5 -55 -3 0 -5 -12 -5 -27 1 -16 -3 -33 -8 -40
-5 -7 -6 -16 -3 -22 4 -5 0 -16 -8 -24 -8 -8 -13 -17 -10 -20 8 -8 -36 -100
-55 -115 -9 -7 -10 -10 -3 -7 18 10 2 -21 -27 -52 -12 -12 -21 -25 -21 -29 0
-4 -7 -14 -15 -23 -45 -50 -55 -61 -55 -65 0 -5 -45 -59 -76 -92 -12 -13 -20
-25 -17 -28 3 -2 -5 -9 -16 -16 -12 -6 -19 -15 -16 -21 4 -5 -1 -12 -9 -15 -9
-3 -16 -12 -16 -20 0 -8 -7 -14 -15 -14 -8 0 -14 -3 -13 -7 4 -16 -14 -53 -23
-48 -5 4 -9 -1 -9 -10 0 -9 -4 -14 -9 -10 -10 6 -7 37 5 57 5 7 3 8 -6 3 -9
-6 -11 -4 -5 5 12 19 15 119 3 126 -5 3 -4 11 3 20 9 11 8 18 -2 31 -10 11
-10 14 -1 9 12 -7 17 6 6 17 -6 5 -15 75 -18 134 0 11 -4 19 -8 16 -5 -2 -9 1
-9 6 -1 6 -3 14 -4 19 -2 4 -6 17 -10 30 -4 12 -12 22 -17 22 -5 0 -6 5 -3 10
3 6 -1 13 -9 16 -9 3 -16 10 -16 15 0 18 -72 78 -88 72 -10 -4 -13 -2 -8 5 7
11 -7 16 -41 15 -7 -1 -13 2 -13 6 0 14 -124 -2 -145 -18 -5 -5 -17 -9 -25 -9
-19 -1 -39 -6 -70 -19 -14 -6 -34 -9 -44 -7 -11 2 -25 -1 -33 -7 -7 -7 -13 -7
-13 -2 0 5 -9 9 -20 10 -12 1 -18 -3 -14 -9 4 -6 -1 -6 -14 1 -11 6 -37 12
-56 13 -20 2 -36 5 -36 8 0 3 -20 12 -45 19 -25 7 -45 18 -45 24 0 6 -3 7 -6
4 -4 -3 -16 -1 -28 5 -11 7 -24 11 -28 10 -5 -1 -8 3 -8 8 0 5 -3 9 -7 8 -5
-1 -39 13 -78 31 -38 18 -78 35 -88 37 -11 2 -25 9 -33 15 -8 7 -17 9 -21 6
-3 -4 -12 -2 -18 3 -7 6 -25 11 -41 12 -16 1 -33 4 -39 7 -12 6 -139 2 -180
-6 -16 -3 -38 -5 -48 -5 -9 0 -16 -2 -13 -6 2 -4 -10 -8 -26 -9 -17 -1 -36 -7
-43 -13 -6 -5 -15 -7 -18 -4 -3 4 -22 -3 -42 -15 -20 -11 -33 -15 -29 -9 6 10
4 11 -7 1 -7 -7 -21 -13 -31 -13 -10 0 -18 -4 -18 -10 0 -5 -11 -10 -24 -10
-14 0 -28 -5 -31 -11 -4 -6 -14 -8 -22 -5 -8 3 -12 2 -9 -3 3 -5 -8 -14 -24
-20 -17 -5 -30 -8 -30 -5 0 3 -10 -4 -22 -15 -11 -11 -25 -18 -30 -15 -4 3 -8
0 -8 -5 0 -6 -7 -11 -15 -11 -8 0 -15 -4 -15 -10 0 -5 -7 -10 -15 -10 -8 0
-15 -4 -15 -10 0 -5 -7 -10 -16 -10 -8 0 -12 -4 -9 -10 3 -5 0 -10 -7 -10 -7
0 -23 -12 -36 -27 -13 -16 -21 -22 -17 -15 3 6 2 12 -3 12 -10 0 -58 81 -54
93 1 4 -2 7 -6 7 -6 0 -34 61 -37 80 0 3 -4 11 -8 17 -5 7 -10 23 -13 35 -9
38 -12 53 -14 56 -2 1 -3 5 -5 10 -1 4 -5 14 -9 23 -4 9 -8 27 -10 40 -3 31
-35 100 -55 119 -19 18 -81 26 -81 11 0 -6 -3 -10 -7 -9 -26 7 -137 -93 -163
-147 -8 -16 -18 -33 -23 -36 -4 -3 -9 -20 -10 -37 -1 -18 -8 -34 -14 -36 -7
-3 -10 -12 -7 -21 3 -8 2 -15 -4 -15 -5 0 -9 -13 -8 -30 1 -16 -1 -30 -4 -30
-3 0 -7 -8 -8 -17 -3 -28 -13 -197 -12 -208 0 -5 2 -31 3 -57 1 -27 5 -48 8
-48 3 0 6 -6 6 -12 0 -11 9 -64 17 -103 1 -5 5 -16 9 -22 5 -7 5 -13 0 -13 -4
0 -1 -5 7 -10 12 -8 9 -16 -21 -43 -31 -27 -48 -53 -49 -72 0 -3 -6 -18 -14
-34 -9 -16 -12 -31 -9 -34 3 -4 1 -13 -5 -20 -7 -8 -9 -17 -5 -20 3 -4 1 -7
-5 -7 -6 0 -9 -7 -6 -15 4 -8 1 -15 -5 -15 -6 0 -11 -11 -11 -25 0 -14 -4 -25
-10 -25 -5 0 -7 -7 -4 -15 4 -8 1 -15 -5 -15 -6 0 -11 -3 -10 -7 2 -16 -14
-53 -23 -53 -5 0 -6 -4 -3 -10 3 -5 1 -10 -4 -10 -6 0 -11 -5 -11 -11 0 -7 -8
-18 -17 -26 -12 -10 -13 -12 -3 -8 10 4 9 2 -2 -8 -10 -8 -18 -19 -18 -25 0
-5 -7 -13 -16 -16 -9 -4 -14 -9 -11 -13 4 -3 -3 -14 -15 -24 -11 -11 -17 -19
-12 -19 5 0 -3 -8 -19 -18 -15 -10 -24 -21 -21 -25 4 -4 -1 -9 -10 -13 -9 -3
-13 -10 -10 -15 3 -5 1 -9 -4 -9 -6 0 -26 -16 -45 -35 -19 -19 -38 -35 -41
-35 -3 0 -15 -9 -26 -20 -11 -11 -27 -20 -35 -20 -8 0 -15 -4 -15 -8 0 -5 -6
-9 -12 -10 -7 -1 -24 -3 -38 -6 -14 -2 -31 1 -38 7 -7 5 -15 7 -19 4 -3 -4
-12 -2 -20 5 -7 6 -28 12 -46 13 -17 2 -38 3 -45 4 -7 0 -11 5 -7 10 3 5 1 12
-5 16 -6 4 -9 9 -6 13 2 4 -7 17 -20 30 -13 12 -24 20 -24 17 0 -4 -7 0 -15 7
-37 33 -47 38 -87 42 -24 3 -44 6 -45 7 -2 1 -7 2 -12 3 -12 1 -51 42 -51 53
-1 4 -17 18 -36 30 -19 13 -32 18 -28 12 3 -6 -3 -5 -15 3 -12 7 -21 16 -21
19 0 4 -8 6 -17 6 -35 0 -44 3 -38 13 3 6 1 10 -5 10 -6 0 -8 5 -5 10 3 6 1
10 -4 10 -6 0 -11 6 -11 14 0 8 -9 18 -20 21 -11 4 -18 11 -14 16 3 5 2 9 -3
8 -16 -4 -68 25 -95 53 -15 15 -30 28 -33 28 -3 0 -33 18 -65 40 -32 22 -64
40 -69 40 -6 0 -11 5 -11 12 0 6 -3 8 -7 5 -3 -4 -13 -1 -22 7 -9 8 -23 16
-31 18 -8 2 -21 9 -28 16 -8 7 -18 10 -23 7 -5 -4 -9 -1 -9 4 0 6 -6 11 -14
11 -7 0 -19 7 -26 15 -7 8 -16 13 -20 10 -5 -3 -15 1 -23 9 -8 8 -17 12 -21 9
-3 -3 -12 -1 -19 5 -8 7 -17 9 -20 5 -4 -3 -7 -1 -7 6 0 7 -4 10 -9 7 -5 -4
-12 0 -14 6 -4 10 -6 10 -6 0 -1 -10 -4 -10 -16 2 -8 8 -24 13 -35 11 -11 -2
-20 0 -20 6 0 12 -27 12 -35 -1 -11 -19 -14 -50 -4 -50 6 0 8 -4 5 -8 -5 -8
44 -86 72 -113 9 -9 26 -29 37 -45 11 -15 32 -40 47 -56 15 -15 24 -28 20 -28
-4 0 9 -11 29 -23 48 -30 82 -66 99 -104 8 -17 18 -29 22 -27 4 3 8 -2 8 -10
0 -8 9 -18 20 -21 11 -3 20 -11 20 -16 0 -6 5 -7 10 -4 6 3 10 1 10 -4 0 -6 3
-10 8 -9 21 4 91 -48 92 -69 1 -14 50 -44 76 -47 15 -2 38 -18 57 -42 17 -21
39 -45 49 -52 9 -7 24 -19 33 -28 8 -8 15 -12 15 -7 0 4 7 -1 15 -11 8 -11 15
-17 15 -13 0 4 11 0 25 -9 14 -9 22 -20 19 -25 -3 -5 1 -9 9 -9 8 0 18 -7 21
-16 8 -22 8 -26 -4 -19 -5 3 -10 2 -10 -3 0 -6 -7 -13 -16 -16 -8 -3 -13 -2
-10 2 3 5 -14 -1 -38 -12 -24 -12 -42 -23 -40 -25 2 -3 -8 -13 -23 -23 -16
-10 -24 -18 -19 -18 5 0 -3 -11 -18 -25 -15 -14 -24 -25 -20 -25 4 0 0 -8 -9
-18 -10 -10 -14 -22 -11 -25 4 -4 -1 -9 -10 -13 -9 -3 -14 -10 -11 -14 3 -4
-5 -19 -16 -34 -11 -14 -18 -26 -14 -26 3 0 -1 -10 -10 -23 -8 -13 -12 -27 -8
-30 3 -4 1 -7 -5 -7 -7 0 -12 -9 -12 -20 0 -11 -4 -20 -8 -20 -5 0 -9 -7 -10
-15 -1 -8 -3 -22 -4 -30 -1 -8 -5 -15 -9 -15 -5 0 -6 -7 -3 -15 4 -8 1 -22 -6
-30 -8 -10 -9 -15 -1 -15 7 0 8 -8 1 -25 -5 -14 -6 -25 -3 -25 4 0 -3 -7 -15
-16 -12 -8 -22 -22 -22 -30 0 -8 -4 -13 -9 -9 -5 3 -12 -4 -16 -15 -4 -11 -11
-18 -16 -15 -5 4 -9 -3 -9 -14 0 -12 -4 -21 -10 -21 -5 0 -10 -7 -10 -15 0 -8
-5 -15 -11 -15 -5 0 -8 -4 -4 -9 3 -5 -2 -17 -11 -25 -8 -9 -13 -16 -9 -16 3
0 0 -10 -7 -22 -7 -13 -11 -26 -10 -30 1 -5 -3 -8 -10 -8 -6 0 -9 -2 -6 -6 3
-3 0 -25 -8 -50 -7 -24 -11 -44 -8 -44 3 0 0 -10 -7 -21 -8 -16 -8 -20 1 -14
9 6 9 3 1 -12 -7 -14 -7 -24 2 -33 7 -7 7 -10 1 -7 -7 4 -10 -8 -10 -33 1 -22
3 -40 6 -40 3 0 5 -46 4 -102 -1 -71 -6 -114 -17 -138 -9 -19 -16 -31 -17 -26
0 5 -13 -6 -30 -24 -16 -18 -30 -30 -30 -25 0 4 -8 -2 -19 -13 -10 -12 -20
-19 -23 -17 -3 3 -11 -1 -18 -10 -7 -8 -18 -15 -25 -15 -7 0 -16 -7 -19 -16
-3 -8 -10 -13 -15 -10 -5 3 -11 -1 -15 -9 -3 -8 -11 -15 -18 -15 -28 0 -124
-122 -112 -141 5 -8 3 -9 -6 -4 -10 6 -12 4 -7 -8 4 -10 1 -17 -6 -17 -8 0 -8
-3 2 -9 11 -7 10 -11 -5 -20 -11 -6 -13 -11 -7 -11 8 0 11 -11 9 -30 -2 -16 0
-30 5 -30 5 0 6 -7 3 -15 -4 -8 -1 -15 5 -15 6 0 10 -3 10 -7 -4 -26 6 -45 46
-87 24 -26 49 -45 55 -41 5 3 13 -1 16 -9 3 -9 10 -13 15 -10 5 3 9 0 9 -7 0
-10 3 -10 11 -2 8 8 20 8 36 2 14 -5 29 -7 34 -3 5 3 9 0 9 -6 0 -6 4 -9 9 -6
11 7 78 -51 68 -60 -3 -4 1 -13 11 -21 9 -8 11 -12 4 -8 -6 3 -12 1 -12 -4 0
-6 5 -11 10 -11 6 0 10 -5 10 -11 0 -5 -4 -7 -10 -4 -5 3 -10 -3 -10 -13 0
-23 -45 -56 -62 -46 -7 5 -8 3 -3 -5 5 -9 1 -12 -11 -11 -64 7 -69 -9 -18 -57
32 -29 57 -39 87 -34 4 0 7 -4 7 -10 0 -5 5 -7 11 -3 6 4 34 8 62 10 27 2 55
8 61 13 6 5 16 10 21 10 6 1 28 7 50 13 22 6 44 11 48 10 5 -2 6 2 2 8 -3 5
-1 10 5 10 18 0 90 54 90 68 0 6 5 12 10 12 6 0 10 9 10 20 0 11 4 20 10 20 5
0 7 6 4 14 -8 22 24 13 41 -11 8 -11 11 -23 8 -27 -3 -3 1 -6 11 -6 9 0 14 -4
11 -10 -3 -5 -1 -10 4 -10 6 0 11 -7 11 -15 0 -8 5 -15 10 -15 6 0 10 -11 10
-25 0 -14 4 -25 9 -25 28 0 33 -164 6 -196 -5 -6 -16 -21 -24 -32 -8 -12 -18
-19 -23 -16 -4 3 -8 0 -8 -5 0 -6 -6 -11 -12 -11 -7 0 -26 -7 -41 -15 -15 -8
-36 -16 -45 -17 -9 -2 -23 -11 -31 -21 -7 -10 -19 -16 -27 -13 -8 3 -14 -1
-14 -11 0 -9 -3 -14 -6 -10 -6 6 -81 -61 -77 -68 4 -7 -41 -50 -49 -48 -4 2
-5 -3 -2 -11 3 -8 0 -17 -5 -21 -6 -3 -9 -11 -6 -16 4 -5 1 -9 -4 -9 -6 0 -11
-9 -11 -20 0 -11 -4 -20 -8 -20 -4 0 -8 -8 -9 -17 -3 -41 -8 -63 -13 -63 -3 0
-4 -42 -2 -92 4 -119 4 -118 15 -118 5 0 7 -7 3 -15 -3 -8 -1 -15 4 -15 5 0 7
-7 4 -15 -4 -8 -1 -15 5 -15 6 0 10 -3 10 -7 -3 -19 2 -34 9 -29 4 2 9 -5 9
-17 1 -12 7 -23 13 -25 5 -2 10 -10 10 -18 0 -8 5 -14 10 -14 6 0 10 -6 10
-13 0 -7 8 -22 19 -33 10 -11 24 -30 30 -42 7 -13 17 -19 23 -16 6 4 8 3 4 -4
-3 -6 2 -15 11 -21 10 -6 14 -11 10 -11 -4 0 10 -18 32 -40 22 -22 37 -40 34
-40 -3 0 4 -8 15 -19 12 -10 22 -23 22 -30 0 -6 5 -11 10 -11 6 0 10 -6 10
-14 0 -8 4 -16 9 -18 12 -5 74 -119 67 -125 -3 -3 0 -15 6 -27 7 -11 12 -24
11 -27 -1 -3 2 -22 7 -42 4 -20 5 -37 1 -37 -4 0 -7 -10 -7 -22 0 -38 -16 -98
-25 -98 -5 0 -9 -7 -9 -15 0 -8 -5 -15 -11 -15 -5 0 -7 -4 -4 -10 3 -5 -1 -10
-10 -10 -9 0 -13 -4 -10 -10 3 -5 -1 -10 -9 -10 -9 0 -16 -4 -16 -8 0 -15 -55
-28 -100 -25 -69 5 -69 5 -74 20 -3 8 -10 11 -16 8 -5 -3 -10 3 -10 13 0 26
-22 43 -40 32 -13 -9 -13 -10 0 -10 13 0 13 -1 0 -10 -13 -9 -13 -10 0 -10 13
0 13 -1 0 -10 -12 -7 -12 -10 -1 -10 7 0 11 -6 8 -13 -3 -8 3 -20 14 -28 10
-7 19 -17 19 -21 0 -11 49 -58 60 -58 6 0 10 -4 10 -10 0 -5 7 -10 15 -10 8 0
15 -4 15 -10 0 -5 9 -10 19 -10 11 0 21 -5 23 -10 2 -6 18 -11 36 -13 17 -1
32 -6 32 -10 0 -5 4 -6 9 -2 5 3 12 1 16 -4 3 -5 14 -8 25 -6 11 2 20 -1 20
-6 0 -6 6 -6 18 0 10 6 24 6 32 1 8 -5 17 -7 20 -5 6 4 56 14 90 19 8 1 26 7
40 13 14 6 37 16 53 22 15 6 27 15 27 21 0 6 4 9 9 5 5 -3 19 7 30 21 12 15
21 24 21 20 0 -4 11 4 25 18 14 14 25 30 25 36 0 6 5 8 10 5 6 -3 10 1 10 9 0
8 6 19 14 23 8 4 15 10 15 13 3 19 27 70 33 70 4 0 8 9 8 20 0 11 4 20 8 20 7
0 11 18 13 63 0 9 4 17 9 17 9 0 6 220 -5 265 -3 17 -10 39 -15 50 -4 11 -13
35 -20 52 -7 18 -17 30 -23 26 -5 -3 -7 -1 -3 5 3 6 2 13 -4 17 -6 4 -8 11 -4
16 3 5 17 0 31 -11 14 -11 36 -20 49 -20 12 0 24 -5 26 -10 3 -11 144 -21 154
-11 3 3 10 7 15 7 5 1 11 3 14 4 6 3 21 7 33 9 5 0 23 14 42 31 18 16 36 27
39 24 3 -4 0 -9 -6 -11 -7 -3 -13 -12 -13 -22 0 -21 -22 -71 -32 -71 -4 0 -5
-7 -2 -15 4 -8 1 -15 -7 -15 -7 0 -10 -3 -6 -6 3 -4 0 -21 -8 -39 -7 -19 -11
-36 -8 -39 3 -3 -2 -8 -11 -12 -13 -5 -14 -9 -5 -20 9 -11 9 -14 0 -14 -7 0
-9 -4 -6 -10 3 -6 1 -10 -5 -10 -6 0 -8 -5 -5 -10 4 -6 1 -18 -6 -26 -6 -8 -9
-17 -6 -20 3 -3 -1 -17 -8 -31 -7 -13 -12 -35 -10 -49 1 -14 -2 -21 -8 -17 -6
4 -8 -2 -5 -13 3 -11 -1 -26 -9 -33 -8 -7 -12 -19 -9 -27 3 -8 1 -14 -3 -14
-5 0 -8 -13 -7 -29 1 -17 -1 -28 -5 -26 -3 3 -12 -29 -20 -70 -7 -41 -16 -75
-20 -75 -4 0 -6 -14 -5 -30 1 -16 -1 -30 -5 -30 -3 0 -6 -12 -5 -27 0 -19 -4
-27 -14 -25 -11 3 -11 0 0 -12 7 -9 9 -16 4 -16 -5 0 -10 -10 -11 -22 -2 -26
-12 -75 -20 -98 -3 -8 -7 -26 -9 -40 -6 -43 -10 -59 -17 -66 -4 -4 -7 -17 -7
-29 0 -12 -3 -25 -7 -29 -4 -3 -8 -14 -9 -24 -1 -9 -5 -28 -9 -42 -4 -14 -7
-31 -7 -37 -1 -7 -5 -13 -9 -13 -4 0 -6 -9 -4 -20 2 -11 -1 -20 -7 -20 -5 0
-8 -7 -4 -15 3 -8 1 -15 -5 -15 -6 0 -8 -7 -5 -16 4 -10 2 -13 -6 -8 -8 5 -9
2 -5 -10 4 -10 1 -19 -6 -22 -7 -2 -13 -12 -14 -22 -2 -22 -62 -150 -74 -158
-5 -3 -9 -13 -9 -24 0 -10 -7 -21 -16 -24 -8 -3 -13 -10 -9 -16 6 -9 -10 -44
-32 -68 -7 -7 -13 -20 -13 -28 0 -8 -5 -14 -10 -14 -6 0 -9 -3 -8 -7 3 -15
-14 -63 -23 -63 -5 0 -9 -9 -9 -20 0 -11 -4 -20 -9 -20 -6 0 -8 -9 -6 -20 2
-11 0 -18 -6 -15 -5 4 -9 -3 -9 -14 0 -12 -5 -21 -12 -21 -6 0 -8 -3 -5 -7 4
-3 2 -12 -4 -20 -9 -10 -8 -13 2 -13 11 0 11 -2 -1 -10 -8 -5 -10 -10 -5 -10
6 0 4 -4 -3 -9 -8 -5 -15 -20 -15 -35 -1 -14 -4 -26 -7 -26 -5 0 -9 -19 -12
-57 -1 -7 -6 -13 -12 -13 -6 0 -4 -5 4 -10 8 -5 10 -10 5 -10 -6 0 -10 -16
-10 -35 1 -20 -3 -39 -8 -42 -5 -3 -3 -9 4 -14 9 -6 10 -9 2 -9 -8 0 -9 -9 -3
-28 4 -16 4 -36 -2 -45 -5 -10 -5 -17 -1 -17 4 0 9 -17 10 -38 3 -38 -25 -122
-40 -122 -5 0 -5 -5 -2 -10 4 -6 3 -16 -3 -23 -10 -13 -8 -120 3 -177 4 -19 8
-39 8 -45 1 -5 6 -13 10 -16 4 -3 9 -16 10 -27 1 -12 4 -22 7 -22 4 0 7 -6 7
-12 1 -7 7 -27 14 -45 11 -26 11 -36 -1 -57 -7 -14 -17 -23 -21 -20 -5 3 -6
-3 -2 -12 4 -12 3 -15 -5 -10 -7 4 -12 1 -12 -8 0 -8 -6 -19 -13 -23 -7 -4
-21 -25 -31 -45 -9 -21 -21 -38 -26 -38 -5 0 -7 -9 -5 -20 2 -11 0 -18 -4 -15
-8 4 -22 -25 -25 -51 -1 -6 -7 -19 -15 -28 -7 -9 -10 -16 -7 -16 4 0 1 -10 -6
-22 -7 -13 -13 -25 -14 -28 -1 -3 -5 -15 -9 -27 -4 -13 -12 -23 -17 -23 -5 0
-7 -4 -4 -9 3 -5 -2 -24 -11 -42 -10 -19 -18 -40 -19 -48 -2 -8 -8 -17 -14
-21 -6 -4 -12 -17 -13 -28 -1 -12 -4 -22 -7 -22 -4 0 -20 -26 -35 -57 -16 -32
-38 -66 -48 -75 -10 -9 -18 -19 -18 -22 3 -20 -1 -26 -16 -26 -15 0 -16 -2 -3
-10 12 -8 12 -10 1 -10 -7 0 -21 -8 -30 -19 -21 -24 -73 -49 -88 -44 -7 3 -13
11 -13 19 0 9 -5 12 -10 9 -5 -3 -10 2 -11 12 0 10 -3 27 -6 38 -13 50 14 122
43 111 7 -3 15 2 18 10 4 10 -2 14 -18 14 -24 0 -52 -24 -58 -50 -2 -8 -7 -18
-13 -22 -6 -5 -5 -8 3 -8 8 0 10 -5 5 -12 -14 -23 -14 -50 -1 -42 9 5 9 2 -1
-9 -8 -10 -9 -17 -3 -17 6 0 9 -10 7 -23 -6 -32 37 -77 75 -77 17 0 30 5 30
11 0 8 5 8 15 -1 8 -7 15 -9 15 -4 0 5 20 22 45 37 25 16 45 33 45 37 0 5 9
12 20 15 11 4 18 10 15 15 -3 5 4 11 15 15 11 3 20 13 20 21 0 8 7 14 16 14 8
0 13 4 10 9 -3 5 1 12 10 15 8 3 12 10 9 16 -3 5 0 10 7 10 8 0 20 10 28 22 8
12 33 40 55 62 22 22 39 43 37 48 -1 4 5 8 13 8 9 0 20 10 25 23 5 12 9 20 9
17 1 -3 33 25 73 62 39 38 77 68 83 68 9 0 12 -21 11 -67 -1 -38 3 -71 9 -75
7 -5 6 -8 -1 -8 -14 0 2 -52 28 -92 22 -34 66 -78 78 -78 5 0 23 -13 41 -30
18 -16 36 -27 41 -24 4 3 8 -3 8 -12 0 -10 3 -15 6 -11 4 3 13 -1 21 -9 8 -8
18 -12 23 -9 5 3 11 1 15 -5 4 -6 11 -8 16 -5 5 4 9 1 9 -5 0 -7 6 -10 13 -7
6 2 20 0 30 -5 11 -5 31 -11 45 -13 15 -3 38 -7 52 -10 46 -11 85 -18 103 -19
9 0 17 -3 17 -6 0 -3 10 -7 23 -8 29 -3 49 -7 68 -16 9 -4 35 -8 57 -9 22 -1
38 -5 35 -9 -2 -5 10 -8 26 -8 43 0 44 0 60 -13 12 -10 13 -9 6 3 -8 13 -6 13
8 1 9 -7 24 -11 32 -7 8 3 15 2 15 -3 0 -5 10 -7 23 -6 12 1 33 -5 46 -13 13
-8 20 -9 17 -3 -4 6 0 11 8 11 9 0 16 -3 16 -7 0 -5 19 -8 43 -8 23 0 45 -4
49 -9 4 -6 13 -5 22 3 11 10 16 10 16 2 0 -9 5 -9 21 0 17 9 20 8 14 -2 -6 -8
-4 -10 4 -5 13 8 63 19 94 20 9 0 17 7 17 15 0 8 3 11 7 8 3 -4 12 -2 20 4 7
6 13 8 13 5 0 -4 11 5 25 19 27 26 50 32 60 15 5 -8 11 -7 20 0 8 7 19 9 24 6
5 -4 12 -2 16 4 4 6 11 8 16 4 5 -3 17 0 25 7 8 6 17 9 21 5 3 -3 15 2 26 11
15 13 18 14 12 3 -8 -13 -6 -13 8 -2 19 16 57 7 57 -14 0 -8 5 -14 10 -14 6 0
10 -7 10 -17 0 -9 3 -14 6 -10 7 6 34 -17 34 -28 0 -4 18 -24 40 -45 22 -21
40 -41 40 -45 0 -11 27 -34 34 -28 3 4 6 0 6 -7 0 -14 37 -50 52 -50 5 0 7 -3
5 -7 -5 -10 30 -43 37 -36 3 4 6 -1 6 -10 0 -8 9 -19 20 -22 11 -3 20 -11 20
-16 0 -6 4 -8 9 -5 5 3 12 -1 15 -10 3 -9 11 -12 18 -8 7 4 10 4 6 -1 -9 -9 8
-25 44 -44 16 -8 28 -18 28 -23 0 -5 5 -6 10 -3 6 3 10 1 10 -5 0 -6 4 -8 10
-5 6 3 10 1 10 -4 0 -6 9 -11 20 -11 11 0 20 -5 20 -11 0 -5 8 -9 18 -8 29 3
43 -1 38 -9 -3 -5 1 -9 9 -9 8 0 15 4 15 9 0 5 11 6 24 4 15 -3 32 3 44 14 11
10 22 16 25 14 3 -3 8 4 12 15 3 12 11 21 16 21 6 0 7 5 4 10 -4 6 -1 17 5 25
7 8 9 15 5 15 -4 0 -2 6 4 14 9 11 9 15 -1 19 -11 4 -11 6 0 6 10 1 10 6 2 21
-6 12 -7 20 -1 20 6 0 6 12 0 33 -11 36 -17 58 -18 70 -1 5 -5 5 -11 2 -5 -3
-10 1 -10 9 0 8 -14 24 -30 36 -17 12 -30 19 -30 15 0 -3 -10 1 -22 9 -16 11
-25 13 -35 4 -10 -8 -13 -7 -13 3 -1 10 -4 9 -14 -3 -7 -10 -16 -15 -19 -11
-4 3 -7 1 -7 -6 0 -7 -4 -9 -10 -6 -6 3 -10 3 -11 -2 0 -4 -2 -17 -4 -28 -3
-18 -2 -18 16 4 10 13 19 21 19 17 0 -3 10 -2 23 3 26 10 64 -7 99 -43 27 -28
31 -38 30 -91 0 -53 -6 -75 -21 -85 -8 -4 -11 -12 -7 -18 5 -9 -12 -17 -38
-20 -5 0 -13 -6 -17 -14 -7 -11 -9 -11 -9 1 0 10 -3 11 -14 2 -10 -8 -16 -9
-21 -1 -3 5 -15 10 -26 10 -10 0 -19 5 -19 11 0 5 -5 7 -10 4 -6 -3 -10 -1
-10 5 0 6 -4 8 -10 5 -5 -3 -10 -1 -10 4 0 6 -4 11 -10 11 -5 0 -28 20 -52 45
-63 65 -98 105 -93 105 3 0 -4 10 -15 23 -10 12 -20 25 -20 29 0 4 -12 19 -25
34 -14 15 -22 30 -19 35 3 5 -2 12 -10 15 -9 3 -14 10 -11 14 3 5 -3 13 -12
19 -10 5 -17 12 -15 15 6 16 1 26 -10 20 -7 -4 -10 -4 -6 1 4 4 -8 37 -27 72
l-35 64 50 49 c26 28 46 50 44 50 -3 0 0 6 6 13 32 36 100 133 100 143 0 5 9
20 20 32 12 12 18 22 16 22 -3 0 3 17 13 37 11 21 26 54 34 73 8 19 23 53 32
75 10 22 18 46 18 53 0 6 4 12 9 12 5 0 7 4 3 9 -3 5 -1 12 5 16 6 4 8 11 5
16 -4 5 -1 9 5 9 6 0 9 4 5 9 -3 5 0 13 6 16 5 4 8 13 5 21 -3 8 -1 14 5 14 6
0 9 7 5 15 -3 8 -2 15 2 15 4 0 12 11 19 25 8 19 8 24 0 19 -7 -3 -4 1 5 9 10
8 15 16 13 19 -3 3 1 17 8 31 8 15 17 24 20 21 3 -3 3 3 0 15 -3 13 -1 21 6
21 7 0 10 4 6 9 -3 5 -1 12 5 16 5 3 10 15 10 26 0 10 5 19 10 19 6 0 10 6 10
13 0 15 32 81 52 104 11 14 11 16 -2 9 -8 -4 -6 0 4 8 11 9 16 16 12 16 -4 0
2 13 13 29 12 16 21 32 21 35 0 15 58 94 65 88 5 -4 5 -1 1 6 -5 8 0 22 12 35
11 12 23 32 27 45 3 12 11 22 16 22 5 0 9 7 9 15 0 8 5 15 10 15 6 0 10 7 10
15 0 8 5 15 11 15 5 0 7 5 4 10 -3 6 1 13 10 16 9 4 14 13 11 21 -3 8 -1 11 4
8 6 -3 10 1 10 9 0 9 5 16 10 16 6 0 10 5 10 11 0 6 6 17 12 24 30 33 38 45
38 54 0 5 4 11 9 13 5 1 11 10 13 17 2 8 13 25 26 37 12 12 22 26 22 33 0 6 5
11 11 11 5 0 7 5 4 10 -3 6 1 10 9 10 8 0 18 5 22 12 5 7 2 9 -7 4 -8 -4 0 5
17 21 16 16 28 35 26 42 -2 7 6 15 18 18 16 4 18 8 8 14 -10 7 -9 9 5 9 9 0
17 5 17 10 0 6 14 24 30 40 17 17 27 30 23 30 -8 0 29 29 38 30 3 0 5 -18 4
-40 -1 -22 2 -43 7 -46 5 -3 4 -12 -3 -20 -9 -11 -9 -14 0 -14 7 0 10 -3 8 -7
-5 -8 4 -68 17 -123 3 -14 9 -40 12 -57 3 -18 10 -33 14 -33 4 0 7 -13 6 -29
-1 -17 2 -28 6 -25 7 4 10 -10 7 -32 0 -4 3 -10 8 -13 10 -8 44 -68 43 -78 0
-5 6 -15 14 -25 8 -9 11 -19 8 -23 -4 -4 1 -13 12 -20 10 -8 15 -18 12 -23 -3
-6 1 -12 9 -16 8 -3 15 -10 15 -16 0 -6 5 -16 10 -23 29 -34 54 -65 73 -90 12
-16 34 -41 50 -57 15 -16 27 -31 27 -34 0 -3 23 -28 50 -56 28 -27 48 -50 43
-50 -4 0 10 -16 30 -35 20 -19 38 -38 39 -42 2 -13 52 -88 61 -91 4 -2 16 -23
27 -47 11 -24 25 -47 30 -50 6 -4 8 -10 5 -15 -3 -5 1 -14 8 -22 17 -17 47
-77 47 -95 0 -7 5 -13 11 -13 5 0 8 -4 4 -9 -3 -5 1 -16 9 -24 8 -8 12 -17 9
-21 -4 -3 0 -6 7 -6 7 0 11 -3 7 -6 -3 -4 3 -24 14 -46 15 -29 18 -43 10 -51
-8 -8 -11 -7 -11 1 0 7 -17 29 -38 50 -21 20 -39 42 -41 47 -2 6 -7 9 -12 7
-5 -1 -9 5 -9 15 0 9 -2 14 -5 11 -3 -3 -26 14 -51 38 -25 24 -50 43 -57 41
-7 -1 -11 3 -10 10 1 6 -11 14 -27 18 -17 4 -30 13 -30 21 0 9 -4 13 -8 10 -5
-3 -18 3 -29 14 -12 10 -23 17 -26 14 -2 -3 -21 6 -42 20 -21 14 -41 23 -46
20 -5 -3 -9 2 -9 10 0 9 -5 16 -11 16 -5 0 -26 11 -46 25 -20 13 -40 22 -45
19 -4 -3 -8 0 -8 5 0 6 -9 11 -20 11 -11 0 -20 4 -20 9 0 8 -23 9 -77 2 -7 0
-13 -8 -13 -17 0 -8 -4 -13 -9 -9 -5 3 -15 -11 -21 -31 -7 -19 -18 -38 -25
-41 -8 -2 -11 -11 -8 -19 3 -8 0 -14 -5 -14 -10 0 -29 -43 -21 -47 2 -1 -5 -9
-16 -17 -11 -9 -16 -16 -11 -16 4 0 1 -11 -8 -25 -9 -14 -14 -31 -10 -37 4 -7
3 -8 -4 -4 -10 6 -17 -15 -9 -28 1 -2 -6 -13 -16 -23 -9 -11 -14 -22 -11 -25
3 -4 -1 -19 -10 -36 -8 -16 -12 -32 -9 -36 4 -3 1 -6 -6 -6 -9 0 -12 -10 -9
-29 2 -17 1 -28 -4 -25 -4 3 -8 -3 -8 -13 0 -11 -6 -25 -12 -32 -11 -11 -10
-12 2 -6 13 8 13 7 1 -8 -7 -9 -10 -17 -6 -17 4 0 3 -6 -3 -12 -6 -7 -11 -17
-11 -23 -1 -18 -60 -72 -73 -67 -5 1 -8 -2 -8 -7 0 -5 -15 -18 -32 -30 -18
-11 -30 -21 -26 -21 4 0 -8 -15 -27 -34 -18 -19 -31 -37 -28 -40 3 -3 0 -12
-7 -21 -7 -8 -8 -15 -3 -15 5 0 10 -12 11 -27 1 -15 8 -30 15 -35 6 -4 8 -8 3
-8 -5 0 -3 -7 4 -15 7 -8 9 -15 4 -15 -5 0 -1 -5 9 -11 9 -6 15 -14 12 -20 -4
-5 -2 -9 3 -9 5 0 21 -22 34 -50 14 -27 28 -47 31 -43 4 3 7 -3 7 -15 0 -11 8
-26 18 -31 9 -6 12 -11 7 -11 -10 0 -15 -170 -5 -170 3 0 5 -30 4 -67 -1 -38
3 -76 8 -85 5 -10 4 -19 -2 -23 -8 -5 -7 -11 1 -21 9 -11 8 -14 -2 -14 -9 0
-10 -3 -4 -8 6 -4 10 -20 10 -37 0 -16 6 -39 15 -49 14 -18 13 -19 -3 -13 -16
6 -16 5 -2 -17 29 -44 95 -60 134 -31 11 8 13 7 7 -3 -7 -11 -4 -12 11 -3 11
6 23 7 27 4 3 -3 6 -1 6 6 0 7 5 9 10 6 6 -3 16 -3 23 2 15 9 35 14 65 16 12
0 22 5 22 9 0 4 10 8 23 8 13 0 28 5 35 12 9 9 12 9 12 -1 0 -10 3 -11 13 -2
8 6 17 8 20 4 4 -3 7 -2 7 4 0 9 69 26 94 22 5 0 12 3 15 8 3 4 41 19 83 33
43 14 78 28 78 33 0 4 9 7 19 7 11 0 26 6 33 13 7 7 20 12 28 12 8 0 23 7 33
16 11 10 30 20 44 24 14 3 32 13 40 20 8 8 23 15 34 15 11 0 17 5 14 10 -3 6
0 10 8 10 7 0 23 9 34 20 15 14 23 16 26 7 3 -7 6 -5 6 5 1 9 10 20 21 23 11
4 18 10 15 15 -3 5 9 3 27 -4 18 -7 39 -11 46 -9 6 3 12 1 12 -4 0 -6 7 -10
15 -10 8 0 15 4 15 8 0 4 11 6 25 4 15 -1 29 4 35 14 9 15 9 15 10 0 0 -9 6
-16 13 -16 21 1 77 -15 77 -23 0 -14 43 -3 57 16 15 21 15 21 41 -3 11 -10 32
-27 47 -38 16 -11 33 -24 39 -30 6 -5 28 -23 49 -38 20 -16 49 -39 64 -53 14
-13 30 -24 34 -24 5 0 22 -13 37 -30 16 -16 34 -30 41 -30 6 0 11 -4 11 -8 0
-5 11 -15 25 -22 13 -7 22 -17 19 -22 -3 -5 -2 -8 3 -7 21 4 33 -2 33 -17 0
-8 4 -12 10 -9 5 3 10 1 10 -4 0 -6 7 -11 15 -11 8 0 15 -4 15 -10 0 -5 7 -10
15 -10 8 0 15 -7 15 -16 0 -8 4 -13 9 -10 5 3 14 -1 21 -9 7 -8 16 -12 21 -9
5 3 9 0 9 -5 0 -6 7 -11 16 -11 8 0 12 -5 9 -10 -3 -6 3 -10 14 -10 12 0 21
-4 21 -10 0 -5 7 -10 15 -10 8 0 15 -4 15 -10 0 -5 6 -10 13 -10 7 0 23 -9 35
-20 12 -11 25 -20 30 -20 5 0 21 -9 34 -20 14 -10 28 -16 32 -13 3 3 6 1 6 -6
0 -7 4 -9 10 -6 5 3 10 2 10 -3 0 -9 37 -25 53 -23 4 1 7 -3 7 -8 0 -5 12 -12
28 -16 15 -3 36 -14 46 -23 11 -9 16 -12 13 -5 -7 11 52 -13 63 -26 3 -3 16
-8 30 -9 14 -2 27 -8 28 -13 2 -5 10 -9 18 -9 9 0 12 -5 8 -12 -5 -7 -2 -9 8
-5 9 3 21 0 27 -6 9 -9 14 -8 21 3 5 8 10 12 10 7 0 -15 50 25 64 51 7 15 28
54 46 87 17 33 34 71 36 85 3 14 9 27 15 28 5 2 7 8 3 13 -3 5 -1 9 5 9 5 0
10 8 10 18 0 24 6 54 14 75 12 31 19 52 24 77 8 43 11 55 13 55 2 0 11 58 14
100 2 22 5 42 6 45 1 3 2 8 1 12 0 3 13 12 29 19 15 7 27 16 25 19 -1 3 3 11
11 18 8 7 14 10 14 7 0 -8 83 56 88 67 2 5 8 8 14 8 16 0 80 68 104 110 19 33
20 40 8 80 -7 24 -11 47 -8 52 3 5 1 15 -5 22 -11 13 -9 79 3 108 4 9 5 21 2
26 -3 6 1 13 10 16 9 3 14 11 12 18 -6 16 23 49 35 41 6 -3 7 -1 4 4 -8 12
113 143 132 143 7 0 10 3 8 8 -3 4 1 13 9 20 8 7 14 10 14 7 0 -3 12 6 27 20
15 14 31 25 35 25 5 0 8 7 8 16 0 8 5 12 10 9 6 -3 10 -1 10 6 0 7 3 10 6 7 3
-3 18 6 34 20 15 15 57 54 93 87 36 32 63 63 61 67 -3 4 1 8 8 8 7 0 24 16 37
35 13 19 27 35 32 35 5 0 9 6 9 14 0 8 7 17 16 20 9 4 14 9 11 12 -3 4 1 13 9
21 8 8 11 19 8 25 -4 6 -2 8 3 5 11 -7 59 87 56 110 0 7 3 13 9 13 5 0 8 6 7
13 -1 6 1 19 4 27 3 8 8 31 10 51 3 20 8 42 11 48 4 6 2 11 -5 11 -10 0 -10 3
-2 11 8 8 9 19 2 37 -5 14 -8 31 -5 38 3 8 1 16 -4 19 -5 3 -7 12 -3 20 3 8
-1 15 -8 15 -7 0 -10 3 -6 6 6 7 -18 100 -34 128 -8 13 -7 16 1 11 8 -5 9 -2
1 11 -13 24 -23 70 -25 109 -1 17 -5 36 -10 44 -5 8 -5 12 0 8 5 -3 10 17 11
44 1 28 7 57 13 65 7 8 9 14 5 14 -4 0 -3 6 2 12 6 7 13 26 17 41 4 15 11 25
15 22 5 -3 14 9 20 25 5 17 15 30 20 30 6 0 11 7 11 16 0 8 5 12 10 9 6 -3 10
-1 10 6 0 6 10 20 22 30 11 11 17 19 12 19 -5 0 5 9 21 20 17 11 27 20 23 20
-3 0 23 29 59 65 36 36 62 65 59 65 -4 0 11 17 34 38 22 22 37 42 33 45 -3 4
1 7 11 7 9 0 15 4 12 8 -3 5 3 15 12 24 9 8 24 25 32 38 8 12 20 28 27 35 7 7
9 15 6 19 -4 3 -1 6 5 6 7 0 12 7 12 15 0 9 7 18 15 21 8 4 15 14 15 24 0 10
7 23 15 30 8 7 15 17 15 23 0 6 8 19 18 30 9 11 12 17 5 14 -8 -5 -8 -1 0 18
7 14 15 25 19 25 4 0 5 7 2 15 -4 8 -1 15 5 15 6 0 8 7 5 15 -4 8 -1 15 5 15
6 0 8 6 5 14 -3 8 -1 17 5 21 6 3 11 12 11 18 0 7 -4 6 -10 -3 -6 -9 -10 -10
-10 -3 0 6 4 14 8 17 4 2 9 22 10 42 2 21 8 42 15 46 8 5 8 8 1 8 -8 0 -9 13
-4 38 4 21 5 49 3 61 -2 15 1 20 9 15 8 -5 8 -3 2 7 -5 8 -10 59 -11 114 -1
55 -2 100 -3 100 0 0 -2 26 -3 58 -1 32 2 57 8 57 5 0 4 4 -3 9 -8 4 -11 19
-8 34 3 17 0 27 -7 27 -8 0 -8 3 -2 8 12 9 18 32 7 32 -4 0 -8 44 -10 98 -1
53 -2 105 -3 114 0 10 -5 20 -10 23 -5 4 -6 11 -2 18 10 16 10 58 0 64 -4 2
-2 12 5 21 8 9 8 13 2 9 -8 -5 -13 7 -16 34 -2 22 0 43 5 46 5 3 3 9 -4 14
-11 7 -11 9 -1 9 9 0 10 5 2 19 -7 14 -7 22 0 26 8 5 7 11 -1 21 -9 11 -8 14
2 14 11 0 11 3 -1 11 -11 8 -12 12 -2 16 6 2 9 9 6 15 -4 6 -7 24 -6 40 0 19
-3 26 -11 21 -7 -4 -6 0 2 10 7 9 9 17 3 17 -5 0 -9 16 -8 37 1 20 -3 41 -9
47 -6 6 -10 21 -9 34 1 12 -3 22 -8 22 -5 0 -7 4 -4 8 5 8 -13 67 -27 90 -5 6
-5 17 -2 22 3 6 0 12 -7 15 -8 3 -15 15 -15 27 -1 12 -8 25 -15 29 -10 7 -10
9 0 9 7 0 4 8 -8 20 -11 11 -20 27 -20 35 0 8 -4 15 -10 15 -5 0 -10 6 -10 14
0 7 -7 19 -15 26 -8 7 -12 16 -9 21 3 5 -2 9 -11 9 -9 0 -15 5 -13 11 6 17
-84 115 -162 179 -17 14 -37 31 -45 38 -7 6 -19 12 -25 12 -6 0 -9 4 -6 9 3 4
-6 13 -19 19 -14 7 -25 16 -25 22 0 6 -4 8 -10 5 -5 -3 -23 7 -39 24 -16 16
-32 27 -35 24 -3 -4 -6 -1 -6 5 0 7 -7 12 -17 12 -9 0 -14 3 -10 6 6 7 -16 34
-28 34 -9 0 -65 60 -65 69 0 4 -9 13 -20 21 -11 8 -20 23 -20 34 0 11 -3 16
-7 13 -8 -9 -45 94 -38 110 2 7 0 13 -5 13 -6 0 -6 9 -1 23 4 12 7 30 6 40 -2
9 1 17 6 17 5 0 8 3 7 8 -3 15 15 62 24 62 5 0 6 5 3 10 -3 6 -1 10 5 10 6 0
9 4 6 8 -3 5 5 19 17 33 12 14 23 31 25 39 2 8 9 18 15 22 7 4 8 8 3 8 -5 0
-2 8 6 18 15 17 26 42 24 53 0 3 5 13 12 22 8 9 11 20 8 26 -3 5 -2 11 4 13 5
1 10 18 12 36 1 17 6 32 10 32 4 0 5 6 2 14 -3 8 0 24 6 36 9 17 9 21 0 15 -9
-6 -9 -3 -1 12 7 14 7 23 0 30 -8 8 -7 13 0 17 6 4 11 12 11 17 0 6 -5 7 -12
3 -7 -5 -8 -3 -2 7 12 20 14 38 3 45 -6 4 -6 11 1 19 8 10 8 15 0 20 -8 5 -8
11 1 21 9 11 9 14 0 14 -9 0 -9 5 -1 20 6 11 7 20 2 20 -5 0 -9 12 -10 28 -2
61 -13 126 -25 141 -9 12 -9 13 1 7 16 -10 15 -1 -4 36 -10 19 -11 28 -3 23 8
-6 10 -4 3 6 -9 14 -14 34 -16 57 -1 6 -5 12 -10 12 -6 0 -8 6 -5 13 2 6 -4
32 -15 55 -10 24 -15 49 -11 54 4 7 1 8 -7 3 -10 -6 -12 -4 -7 8 3 10 2 17 -4
17 -6 0 -7 5 -4 10 3 6 1 10 -4 10 -6 0 -11 9 -11 21 0 11 -4 17 -10 14 -5 -3
-7 0 -4 8 3 8 -2 20 -11 27 -8 7 -15 21 -15 31 0 11 -5 19 -11 19 -5 0 -7 5
-4 10 3 6 1 10 -5 10 -6 0 -8 5 -5 10 3 6 1 10 -4 10 -6 0 -11 7 -11 15 0 8
-3 15 -7 15 -7 0 -37 47 -45 68 -1 4 -14 19 -28 33 -42 43 -59 67 -52 75 4 4
2 4 -4 1 -6 -4 -28 14 -50 38 -21 25 -43 45 -49 45 -6 0 -16 9 -23 20 -7 11
-17 20 -23 20 -6 0 -17 6 -24 13 -34 30 -43 35 -49 30 -3 -4 -6 -1 -6 5 0 7
-6 12 -13 12 -7 0 -22 8 -33 18 -10 9 -28 19 -39 20 -11 2 -23 9 -27 15 -4 7
-8 9 -8 4 0 -4 -25 6 -55 22 -31 16 -53 25 -50 20 4 -5 1 -9 -4 -9 -6 0 -11 5
-11 10 0 6 -3 9 -7 9 -15 -3 -73 14 -79 22 -2 4 -11 6 -19 2 -8 -3 -15 -1 -15
5 0 5 -11 8 -25 7 -14 -2 -25 0 -25 4 0 4 -14 8 -32 9 -17 2 -36 6 -42 11 -10
8 -27 11 -68 12 -10 0 -18 4 -18 8 0 5 -11 7 -25 6 -14 -2 -25 0 -25 5 0 5
-11 7 -25 5 -14 -1 -25 1 -25 6 0 5 -7 6 -15 3 -8 -4 -15 -2 -15 4 0 5 -11 8
-25 7 -14 -2 -25 0 -25 4 0 4 -6 8 -12 9 -21 1 -42 7 -53 13 -5 4 -18 5 -27 4
-9 -2 -19 3 -22 11 -3 8 -12 11 -22 7 -13 -5 -15 -3 -9 7 6 9 4 11 -4 5 -13
-7 -60 12 -73 30 -5 6 -8 4 -8 -5 0 -13 -2 -13 -9 -1 -5 8 -17 16 -26 17 -9 1
-24 9 -33 17 -10 8 -27 18 -40 22 -12 3 -32 16 -42 28 -11 11 -20 18 -20 14 0
-4 -29 21 -64 56 -35 34 -61 65 -59 70 2 4 -3 7 -12 7 -9 0 -14 4 -10 9 3 5
-2 17 -12 26 -14 15 -16 47 -17 263 -1 136 -5 253 -9 259 -4 7 -3 22 3 33 8
15 8 20 -1 20 -9 0 -9 3 0 14 7 8 8 16 4 19 -4 3 -8 35 -8 71 1 36 -2 66 -5
66 -3 0 -6 12 -7 28 0 15 -4 45 -7 67 -4 22 -7 46 -8 53 -1 6 -4 12 -8 12 -4
0 -7 7 -7 15 0 23 -25 95 -32 91 -3 -2 -7 8 -8 22 0 15 -6 28 -12 30 -6 2 -9
7 -6 12 3 4 -2 13 -10 20 -8 7 -15 19 -15 26 0 8 -4 14 -10 14 -5 0 -10 7 -10
15 0 8 -4 15 -10 15 -5 0 -10 5 -10 10 0 10 -57 68 -129 133 -17 15 -29 27
-25 27 3 0 -7 11 -23 24 -39 33 -123 77 -134 70 -5 -3 -9 0 -9 5 0 6 -5 11
-11 11 -5 0 -7 -5 -3 -12 5 -7 3 -8 -7 -2 -21 13 -39 14 -39 1 0 -9 -2 -9 -8
-1 -5 8 -16 7 -39 -3z m254 -230 c7 -6 13 -15 13 -20 0 -5 9 -15 19 -23 11 -7
18 -17 15 -22 -3 -4 0 -8 7 -8 10 0 10 -3 0 -12 -11 -11 -14 -10 -18 0 -3 7
-14 22 -25 32 -11 10 -17 23 -14 28 3 6 3 12 -1 14 -5 2 -19 17 -33 33 l-25
30 25 -20 c13 -11 30 -25 37 -32z m-1232 -6733 c-3 -5 -1 -10 6 -10 7 0 10 -3
6 -6 -9 -9 -28 6 -22 17 4 5 8 9 11 9 3 0 2 -4 -1 -10z m25 -70 c0 -5 -2 -10
-4 -10 -3 0 -8 5 -11 10 -3 6 -1 10 4 10 6 0 11 -4 11 -10z m14 -70 c-6 -6
-10 -3 -10 10 0 13 4 16 10 10 7 -7 7 -13 0 -20z m-1539 -1659 c-1 -9 -8 -15
-14 -13 -6 1 -11 -3 -11 -10 0 -6 -3 -8 -7 -5 -3 4 -12 2 -20 -5 -10 -8 -17
-8 -26 1 -7 7 -7 11 -2 9 6 -2 20 6 33 18 26 25 51 27 47 5z"/>
<path d="M8454 7923 c4 -8 2 -13 -5 -13 -8 0 -7 -5 2 -17 8 -9 12 -18 11 -20
-7 -7 10 -83 19 -83 5 0 9 -9 9 -20 0 -11 4 -20 10 -20 5 0 7 -6 4 -14 -3 -8
0 -17 5 -21 6 -3 9 -11 5 -16 -3 -5 0 -8 8 -7 7 2 12 -3 11 -9 -2 -7 2 -13 8
-13 5 0 7 -4 4 -10 -3 -5 -1 -10 5 -10 6 0 9 -4 5 -9 -3 -5 3 -17 12 -27 10
-10 17 -18 15 -18 -5 -1 8 -38 24 -67 7 -14 11 -29 7 -33 -3 -3 -1 -6 5 -6 6
0 9 -7 6 -15 -4 -8 -1 -15 6 -15 6 0 9 -4 5 -9 -3 -5 0 -13 6 -16 5 -4 8 -13
5 -20 -2 -7 1 -24 9 -38 9 -18 10 -28 2 -36 -8 -8 -8 -11 1 -11 7 0 12 -14 12
-34 0 -19 4 -37 8 -40 9 -6 9 -73 -1 -82 -4 -4 0 -16 10 -26 9 -10 12 -18 6
-18 -6 0 -7 -17 -3 -45 4 -29 3 -46 -4 -49 -7 -3 -6 -5 2 -5 6 -1 12 -6 12
-12 0 -5 -5 -7 -11 -3 -8 5 -8 1 0 -14 8 -15 8 -22 -2 -25 -9 -4 -9 -6 1 -6 9
-1 10 -6 2 -20 -7 -14 -7 -22 0 -26 6 -4 7 -11 4 -17 -7 -12 -11 -34 -20 -108
-8 -76 -11 -94 -19 -112 -4 -9 -4 -22 0 -28 3 -5 1 -10 -5 -10 -6 0 -8 -4 -5
-10 3 -5 2 -10 -4 -10 -6 0 -8 -6 -5 -14 3 -8 0 -17 -5 -21 -6 -3 -9 -10 -6
-15 3 -5 1 -11 -5 -15 -5 -3 -10 -17 -10 -30 0 -13 -5 -27 -10 -30 -6 -4 -8
-11 -5 -16 4 -5 1 -9 -4 -9 -6 0 -11 -5 -11 -11 0 -5 6 -7 13 -3 6 4 4 -2 -6
-13 -9 -11 -14 -23 -10 -26 3 -4 1 -7 -6 -7 -7 0 -9 -5 -6 -10 4 -6 1 -18 -7
-27 -9 -12 -9 -15 0 -9 17 10 15 1 -4 -18 -9 -9 -11 -16 -4 -16 6 0 8 -5 5
-11 -11 -17 -7 -112 5 -119 7 -4 11 -10 11 -14 -3 -22 1 -35 18 -53 11 -12 17
-24 14 -27 -4 -3 -1 -6 6 -6 7 0 9 -5 6 -10 -4 -6 -3 -9 2 -8 5 2 21 -9 35
-24 14 -15 28 -25 31 -22 3 3 8 -3 11 -13 6 -20 42 -28 51 -12 4 5 1 9 -5 9
-6 0 -9 4 -5 9 3 5 -2 16 -10 24 -8 9 -15 20 -15 26 0 6 -4 11 -10 11 -5 0
-10 8 -10 18 0 9 -9 28 -20 42 -11 14 -20 35 -20 47 0 12 -5 25 -10 28 -8 5
-8 11 0 20 7 9 7 14 1 17 -7 2 -6 13 3 30 8 15 12 29 9 32 -3 2 4 15 16 27 12
13 21 27 21 32 0 5 9 22 21 38 14 20 16 29 7 29 -10 0 -10 2 0 8 7 5 15 19 17
32 2 13 8 26 12 29 8 6 14 23 18 56 1 11 3 20 4 20 5 0 14 53 15 87 0 20 4 34
8 32 11 -7 16 20 7 43 -5 15 -3 25 7 34 11 9 12 15 3 25 -9 11 -8 14 2 14 12
0 12 2 0 9 -7 5 -9 11 -4 14 5 3 8 55 5 119 -5 156 -6 168 -12 168 -3 0 -6 13
-6 30 -1 16 -5 37 -9 47 -4 10 -9 29 -10 43 -1 14 -10 45 -20 70 -18 48 -26
77 -27 98 -1 6 -5 12 -10 12 -5 0 -6 5 -3 10 3 6 1 10 -4 10 -6 0 -11 3 -10 8
2 16 -14 52 -24 52 -6 0 -8 3 -4 6 3 4 -1 21 -10 38 -10 17 -16 34 -15 39 1 4
-2 7 -7 7 -5 0 -14 13 -21 30 -7 16 -16 27 -21 24 -5 -3 -6 2 -3 10 4 9 -1 18
-10 22 -9 3 -14 10 -11 14 3 4 -2 13 -10 20 -8 7 -15 18 -15 25 0 8 -4 15 -8
17 -10 4 -74 108 -76 125 -1 7 -6 16 -11 20 -4 4 -5 2 -1 -4z"/>
<path d="M1317 7347 c-4 -10 -2 -17 3 -17 5 0 6 -12 4 -27 -3 -16 -6 -53 -7
-84 -1 -31 -8 -63 -16 -72 -11 -14 -11 -17 0 -17 11 0 11 -2 -1 -10 -8 -5 -12
-10 -8 -10 3 0 -8 -15 -25 -32 -18 -18 -35 -31 -39 -30 -5 1 -8 -3 -8 -9 0 -5
-4 -7 -10 -4 -5 3 -10 -1 -10 -10 0 -9 -4 -13 -10 -10 -5 3 -10 1 -10 -5 0 -6
-5 -8 -10 -5 -6 3 -13 -1 -16 -9 -3 -9 -10 -14 -14 -11 -4 2 -15 -4 -25 -15
-10 -11 -23 -20 -28 -20 -5 0 -20 -11 -33 -26 -13 -14 -24 -22 -24 -19 0 3
-11 -5 -24 -17 -13 -13 -22 -25 -20 -26 1 -2 -9 -16 -24 -31 -15 -15 -28 -33
-30 -41 -2 -7 -12 -26 -23 -42 -11 -15 -18 -28 -14 -28 3 0 1 -10 -6 -21 -6
-12 -13 -31 -15 -43 -2 -11 -6 -34 -10 -50 -6 -23 -4 -27 7 -21 11 7 12 6 2
-6 -10 -12 -10 -18 0 -29 9 -10 9 -11 0 -6 -15 8 -18 -10 -4 -18 5 -4 8 -14 7
-24 -2 -9 4 -23 13 -30 10 -9 11 -11 2 -6 -8 4 0 -14 19 -39 18 -26 37 -47 42
-47 5 0 6 -4 3 -10 -4 -6 1 -7 11 -3 12 4 15 3 10 -5 -5 -8 1 -12 17 -12 13 0
27 -3 30 -7 9 -9 67 -10 67 -1 0 9 53 -13 62 -26 4 -6 4 -14 1 -20 -3 -5 -1
-6 5 -2 16 10 15 -17 0 -32 -9 -9 -8 -12 8 -12 10 0 25 9 32 20 7 12 8 20 2
20 -5 0 -9 3 -9 8 6 34 -47 90 -103 108 -10 4 -18 11 -18 16 0 5 -4 7 -8 4
-11 -6 -56 43 -59 64 -1 8 -6 16 -11 18 -6 2 -8 12 -5 23 3 10 -1 27 -8 36
-10 12 -10 14 -1 9 9 -5 12 3 14 31 2 63 3 66 15 70 7 3 10 10 7 18 -3 7 0 16
5 20 6 3 8 11 5 17 -4 6 -2 8 3 5 6 -4 18 4 27 18 9 14 13 25 9 26 -5 0 2 4
15 10 13 5 21 12 19 16 -2 5 11 22 30 40 18 17 33 29 33 26 0 -3 11 6 24 20
13 14 27 23 31 19 4 -4 5 -2 3 3 -1 6 9 22 22 37 66 71 80 90 80 103 0 8 4 15
8 15 5 0 9 6 9 13 0 6 4 21 9 31 6 15 4 17 -7 11 -8 -5 -5 1 5 13 14 17 16 22
5 22 -9 0 -10 3 -4 8 6 4 10 16 8 27 -1 11 -4 43 -6 70 -5 64 -21 106 -30 82z"/>
<path d="M9279 4316 c7 -9 8 -17 2 -20 -11 -7 -9 -25 3 -45 6 -9 5 -12 -1 -8
-11 7 -11 -122 0 -140 5 -8 3 -13 -4 -13 -8 0 -7 -5 2 -17 12 -14 12 -15 1 -9
-11 7 -12 4 -3 -12 7 -14 8 -23 1 -27 -7 -4 -7 -12 0 -25 6 -10 6 -21 2 -24
-5 -3 -8 -26 -8 -51 1 -25 -1 -45 -4 -45 -3 0 -6 -19 -7 -42 -2 -23 -6 -44
-10 -47 -8 -6 -11 -20 -16 -68 -1 -13 -6 -23 -12 -23 -5 0 -4 -4 3 -9 11 -7
11 -9 -2 -14 -9 -4 -13 -14 -11 -27 2 -11 0 -20 -6 -20 -5 0 -9 -9 -9 -19 0
-11 -6 -26 -12 -33 -7 -7 -14 -22 -16 -33 -2 -11 -10 -25 -18 -31 -17 -14 -19
-28 -1 -19 6 4 5 0 -3 -7 -16 -14 -35 -42 -47 -68 -4 -8 -12 -20 -17 -27 -30
-34 -36 -43 -31 -43 3 0 -13 -18 -35 -40 -22 -22 -40 -43 -39 -47 0 -4 -8 -10
-18 -14 -10 -4 -15 -8 -11 -8 11 -1 -58 -71 -71 -71 -6 0 -10 -3 -10 -7 3 -19
-2 -34 -9 -29 -4 3 -19 -13 -32 -35 -14 -21 -28 -39 -32 -39 -5 0 -8 -9 -8
-20 0 -11 -4 -20 -10 -20 -5 0 -10 -9 -10 -20 0 -11 -5 -20 -12 -20 -6 0 -9
-3 -5 -6 3 -3 -3 -26 -13 -50 -11 -24 -20 -46 -20 -49 0 -3 -1 -6 -1 -7 -2 -4
-9 -69 -10 -95 -1 -14 -6 -20 -13 -16 -7 4 -6 1 1 -7 8 -9 9 -19 3 -31 -6 -10
-6 -20 -1 -23 4 -3 9 -24 10 -46 2 -63 4 -70 14 -70 6 0 7 -3 4 -6 -9 -10 13
-46 25 -42 13 5 20 58 8 58 -4 0 -7 20 -5 45 1 25 -2 48 -7 51 -4 3 -6 10 -2
15 3 6 7 28 8 49 1 22 5 43 9 46 4 4 1 14 -6 22 -9 13 -9 14 1 8 8 -5 12 -1
12 13 0 11 5 23 10 26 6 4 9 13 8 20 -4 18 93 166 104 159 4 -3 8 4 8 16 0 12
4 19 9 15 6 -3 14 3 20 12 6 10 11 14 11 8 0 -5 7 1 16 13 8 12 20 19 26 16 7
-4 8 -2 4 5 -4 6 0 14 11 18 10 4 26 15 36 26 9 11 17 17 17 12 0 -4 9 4 21
19 11 14 26 23 32 19 7 -3 9 -3 6 1 -4 4 9 24 30 45 56 58 105 128 132 189 7
17 18 32 22 32 5 0 6 4 3 9 -3 5 1 23 10 40 9 18 17 37 18 44 2 7 9 32 16 57
7 25 14 54 14 65 1 11 4 25 7 30 3 6 5 38 5 73 -1 34 2 62 6 62 4 0 5 6 2 14
-3 8 -6 41 -8 75 -1 33 -5 64 -9 67 -12 12 -8 26 6 18 10 -6 10 -4 0 7 -7 7
-13 28 -13 46 0 18 -3 33 -7 33 -5 0 -9 16 -10 36 -1 21 -5 44 -9 53 -4 9 -9
27 -11 41 -7 55 -14 70 -29 70 -13 0 -14 -3 -5 -14z"/>
</g>
</svg>
